# xmcd
#
# Track frame offsets: 
#        217
#        15452
#        33652
#        49365
#        70312
#        95220
#        112025
#        131715
#        148432
#
# Disc length: 2347 seconds
#
# Revision: 4
# Processed by: cddbd v1.5.2PL0 Copyright (c) Steve Scherf et al.
# Submitted via: ExactAudioCopy v1.0b4
#
DISCID=90092909
DTITLE=Paul Butterfield's Better Days - It All Comes Back
DYEAR=1973
DGENRE=Blues
TTITLE0=Too Many Drivers
TTITLE1=It's Getting Harder to Survive
TTITLE2=If You Live
TTITLE3=Win or Lose
TTITLE4=Small Town Talk
TTITLE5=Take Your Pleasure Where You Find It
TTITLE6=Poor Boy
TTITLE7=Louisiana Flood
TTITLE8=It All Comes Back
EXTD=
EXTT0=
EXTT1=
EXTT2=
EXTT3=
EXTT4=
EXTT5=
EXTT6=
EXTT7=
EXTT8=
PLAYORDER=
